<svg xmlns="http://www.w3.org/2000/svg" width="32.429" height="20" viewBox="0 0 32.429 20">
  <path id="loop" d="M35.382,75.171l-5.155,5.155a1.229,1.229,0,0,1-1.738,0l-5.155-5.155a1.229,1.229,0,0,1,0-1.738l.554-.554a1.229,1.229,0,0,1,1.762.025L27.72,75.1V65.771h-9.6a1.229,1.229,0,0,1-.869-.36l-.819-.819a1.229,1.229,0,0,1,.869-2.1h12.47A1.229,1.229,0,0,1,31,63.723V75.1L33.066,72.9a1.229,1.229,0,0,1,1.762-.025l.554.554a1.229,1.229,0,0,1,0,1.738Zm-13.575.79a1.229,1.229,0,0,0-.869-.36h-9.6V66.277L13.4,68.468a1.229,1.229,0,0,0,1.762.025l.554-.554a1.229,1.229,0,0,0,0-1.738l-5.155-5.155a1.229,1.229,0,0,0-1.738,0L3.673,66.2a1.229,1.229,0,0,0,0,1.738l.554.554a1.229,1.229,0,0,0,1.762-.025l2.069-2.191V77.649a1.229,1.229,0,0,0,1.229,1.229h12.47a1.229,1.229,0,0,0,.869-2.1l-.819-.819Z" transform="translate(-3.313 -60.686)" fill="#46beaf"/>
</svg>
